{
  "accessors": [
    {
      "bufferView": 2,
      "componentType": 5126,
      "count": 1312,
      "max": [
        0.25157174468040466,
        0.25157180428504944,
        2.767954111099243
      ],
      "min": [
        -0.25157174468040466,
        -0.25157174468040466,
        1.9443188905715942
      ],
      "type": "VEC3"
    },
    {
      "bufferView": 2,
      "byteOffset": 15744,
      "componentType": 5126,
      "count": 1312,
      "max": [
        0.9951847791671753,
        0.9951848387718201,
        0.22152480483055115
      ],
      "min": [
        -0.9951848387718201,
        -0.9951848387718201,
        -1.0
      ],
      "type": "VEC3"
    },
    {
      "bufferView": 1,
      "componentType": 5126,
      "count": 1312,
      "max": [
        0.0,
        0.0
      ],
      "min": [
        0.0,
        0.0
      ],
      "type": "VEC2"
    },
    {
      "bufferView": 0,
      "componentType": 5125,
      "count": 2010,
      "type": "SCALAR"
    },
    {
      "bufferView": 2,
      "byteOffset": 31488,
      "componentType": 5126,
      "count": 1912,
      "max": [
        0.377286434173584,
        0.377286434173584,
        1.9443188905715942
      ],
      "min": [
        -0.3772863745689392,
        -0.3772863745689392,
        -2.3877928256988525
      ],
      "type": "VEC3"
    },
    {
      "bufferView": 2,
      "byteOffset": 54432,
      "componentType": 5126,
      "count": 1912,
      "max": [
        0.9951847195625305,
        0.9951848387718201,
        1.0
      ],
      "min": [
        -0.9951847195625305,
        -0.9951847195625305,
        -0.9130611419677734
      ],
      "type": "VEC3"
    },
    {
      "bufferView": 1,
      "byteOffset": 10496,
      "componentType": 5126,
      "count": 1912,
      "max": [
        0.0,
        0.0
      ],
      "min": [
        0.0,
        0.0
      ],
      "type": "VEC2"
    },
    {
      "bufferView": 0,
      "byteOffset": 8040,
      "componentType": 5125,
      "count": 2880,
      "type": "SCALAR"
    },
    {
      "bufferView": 2,
      "byteOffset": 77376,
      "componentType": 5126,
      "count": 512,
      "max": [
        0.3590761125087738,
        0.3590761423110962,
        1.6246519088745117
      ],
      "min": [
        -0.35907602310180664,
        -0.35907605290412903,
        1.2100343704223633
      ],
      "type": "VEC3"
    },
    {
      "bufferView": 2,
      "byteOffset": 83520,
      "componentType": 5126,
      "count": 512,
      "max": [
        0.9951847195625305,
        0.9951848387718201,
        2.542060713039973e-07
      ],
      "min": [
        -0.9951848387718201,
        -0.9951847195625305,
        -0.7707395553588867
      ],
      "type": "VEC3"
    },
    {
      "bufferView": 1,
      "byteOffset": 25792,
      "componentType": 5126,
      "count": 512,
      "max": [
        0.0,
        0.0
      ],
      "min": [
        0.0,
        0.0
      ],
      "type": "VEC2"
    },
    {
      "bufferView": 0,
      "byteOffset": 19560,
      "componentType": 5125,
      "count": 768,
      "type": "SCALAR"
    },
    {
      "bufferView": 2,
      "byteOffset": 89664,
      "componentType": 5126,
      "count": 12184,
      "max": [
        0.6534249782562256,
        0.6534250974655151,
        0.1968485713005066
      ],
      "min": [
        -0.6534250378608704,
        -0.6534249782562256,
        -2.851083517074585
      ],
      "type": "VEC3"
    },
    {
      "bufferView": 2,
      "byteOffset": 235872,
      "componentType": 5126,
      "count": 12184,
      "max": [
        1.0,
        1.0,
        1.0
      ],
      "min": [
        -1.0,
        -1.0,
        -1.0
      ],
      "type": "VEC3"
    },
    {
      "bufferView": 3,
      "componentType": 5126,
      "count": 12184,
      "max": [
        1.0,
        1.0,
        1.0,
        1.0
      ],
      "min": [
        -1.0,
        -1.0,
        -1.0,
        -1.0
      ],
      "type": "VEC4"
    },
    {
      "bufferView": 1,
      "byteOffset": 29888,
      "componentType": 5126,
      "count": 12184,
      "max": [
        19.45784568786621,
        0.977569043636322
      ],
      "min": [
        0.0,
        0.0
      ],
      "type": "VEC2"
    },
    {
      "bufferView": 0,
      "byteOffset": 22632,
      "componentType": 5125,
      "count": 18630,
      "type": "SCALAR"
    }
  ],
  "asset": {
    "extras": {
      "author": "JiggleSticks (https://sketchfab.com/JiggleSticks)",
      "license": "CC-BY-4.0 (http://creativecommons.org/licenses/by/4.0/)",
      "source": "https://sketchfab.com/3d-models/spark-plug-low-poly-174e78a76a7340fb90998bf3bd83fa74",
      "title": "Spark Plug - Low Poly"
    },
    "generator": "Sketchfab-16.12.0",
    "version": "2.0"
  },
  "bufferViews": [
    {
      "buffer": 0,
      "byteLength": 97152,
      "name": "floatBufferViews",
      "target": 34963
    },
    {
      "buffer": 0,
      "byteLength": 127360,
      "byteOffset": 97152,
      "byteStride": 8,
      "name": "floatBufferViews",
      "target": 34962
    },
    {
      "buffer": 0,
      "byteLength": 382080,
      "byteOffset": 224512,
      "byteStride": 12,
      "name": "floatBufferViews",
      "target": 34962
    },
    {
      "buffer": 0,
      "byteLength": 194944,
      "byteOffset": 606592,
      "byteStride": 16,
      "name": "floatBufferViews",
      "target": 34962
    }
  ],
  "buffers": [
    {
      "byteLength": 801536,
      "uri": "scene.bin"
    }
  ],
  "extensionsUsed": [
    "KHR_materials_specular"
  ],
  "images": [
    {
      "uri": "Material.003_metallicRoughness.png"
    },
    {
      "uri": "Material.001_baseColor.png"
    },
    {
      "uri": "Material.001_metallicRoughness.png"
    },
    {
      "uri": "Material.002_baseColor.png"
    },
    {
      "uri": "Material.002_metallicRoughness.png"
    },
    {
      "uri": "Metal_baseColor.png"
    },
    {
      "uri": "Metal_metallicRoughness.png"
    },
    {
      "uri": "Metal_normal.png"
    }
  ],
  "materials": [
    {
      "doubleSided": true,
      "extensions": {
        "KHR_materials_specular": {
          "specularColorFactor": [
            1.0,
            1.0,
            1.0
          ],
          "specularFactor": 0.28177084317170076
        }
      },
      "name": "Material.003",
      "pbrMetallicRoughness": {
        "baseColorFactor": [
          0.03282970664197667,
          0.03282970664197667,
          0.03282970664197667,
          1.0
        ],
        "metallicFactor": 0.0,
        "metallicRoughnessTexture": {
          "index": 0
        }
      }
    },
    {
      "doubleSided": true,
      "name": "Material.001",
      "pbrMetallicRoughness": {
        "baseColorTexture": {
          "index": 1
        },
        "metallicRoughnessTexture": {
          "index": 2
        }
      }
    },
    {
      "doubleSided": true,
      "extensions": {
        "KHR_materials_specular": {
          "specularColorFactor": [
            1.0,
            1.0,
            1.0
          ],
          "specularFactor": 0.0
        }
      },
      "name": "Material.002",
      "pbrMetallicRoughness": {
        "baseColorFactor": [
          0.7729021452363412,
          0.7729021452363412,
          0.7729021452363412,
          1.0
        ],
        "baseColorTexture": {
          "index": 3
        },
        "metallicFactor": 0.0,
        "metallicRoughnessTexture": {
          "index": 4
        }
      }
    },
    {
      "doubleSided": true,
      "extensions": {
        "KHR_materials_specular": {
          "specularColorFactor": [
            1.0,
            1.0,
            1.0
          ],
          "specularFactor": 0.0
        }
      },
      "name": "Metal",
      "normalTexture": {
        "index": 7
      },
      "pbrMetallicRoughness": {
        "baseColorFactor": [
          0.4014053911105234,
          0.4014053911105234,
          0.4014053911105234,
          1.0
        ],
        "baseColorTexture": {
          "index": 5
        },
        "metallicFactor": 0.5588192699773954,
        "metallicRoughnessTexture": {
          "index": 6
        }
      }
    }
  ],
  "meshes": [
    {
      "name": "Spark Plug.001_Material.003_0",
      "primitives": [
        {
          "attributes": {
            "NORMAL": 1,
            "POSITION": 0,
            "TEXCOORD_0": 2
          },
          "indices": 3,
          "material": 0,
          "mode": 4
        }
      ]
    },
    {
      "name": "Spark Plug.001_Material.001_0",
      "primitives": [
        {
          "attributes": {
            "NORMAL": 5,
            "POSITION": 4,
            "TEXCOORD_0": 6
          },
          "indices": 7,
          "material": 1,
          "mode": 4
        }
      ]
    },
    {
      "name": "Spark Plug.001_Material.002_0",
      "primitives": [
        {
          "attributes": {
            "NORMAL": 9,
            "POSITION": 8,
            "TEXCOORD_0": 10
          },
          "indices": 11,
          "material": 2,
          "mode": 4
        }
      ]
    },
    {
      "name": "Spark Plug.001_Metal_0",
      "primitives": [
        {
          "attributes": {
            "NORMAL": 13,
            "POSITION": 12,
            "TANGENT": 14,
            "TEXCOORD_0": 15
          },
          "indices": 16,
          "material": 3,
          "mode": 4
        }
      ]
    }
  ],
  "nodes": [
    {
      "children": [
        1
      ],
      "matrix": [
        0.9543843269348145,
        -0.2985808551311493,
        -6.629826801577405e-17,
        0.0,
        0.0,
        2.220446049250313e-16,
        -1.0,
        0.0,
        0.2985808551311493,
        0.9543843269348145,
        2.119158908208828e-16,
        0.0,
        0.0,
        0.0,
        0.0,
        1.0
      ],
      "name": "Sketchfab_model"
    },
    {
      "children": [
        2
      ],
      "matrix": [
        0.009999999776482582,
        0.0,
        0.0,
        0.0,
        0.0,
        0.0,
        0.009999999776482582,
        0.0,
        0.0,
        -0.009999999776482582,
        0.0,
        0.0,
        0.0,
        0.0,
        0.0,
        1.0
      ],
      "name": "b4bdf8de38944d278fe94e390703628e.fbx"
    },
    {
      "children": [
        3,
        8,
        10
      ],
      "name": "RootNode"
    },
    {
      "children": [
        4,
        5,
        6,
        7
      ],
      "matrix": [
        100.0,
        0.0,
        0.0,
        0.0,
        0.0,
        -1.629206793918314e-05,
        -99.99999999999868,
        0.0,
        0.0,
        99.99999999999868,
        -1.629206793918314e-05,
        0.0,
        0.0,
        0.0,
        0.0,
        1.0
      ],
      "name": "Spark Plug.001"
    },
    {
      "mesh": 0,
      "name": "Spark Plug.001_Material.003_0"
    },
    {
      "mesh": 1,
      "name": "Spark Plug.001_Material.001_0"
    },
    {
      "mesh": 2,
      "name": "Spark Plug.001_Material.002_0"
    },
    {
      "mesh": 3,
      "name": "Spark Plug.001_Metal_0"
    },
    {
      "children": [
        9
      ],
      "matrix": [
        -51.84963281644751,
        -35.4337704255808,
        -48.87440505361687,
        0.0,
        -25.784319336956855,
        71.25371493855839,
        -24.304751858488505,
        0.0,
        54.58414608238114,
        1.0150414854881441e-05,
        -57.906961497198246,
        0.0,
        735.88916015625,
        495.8309326171875,
        692.5791015625,
        1.0
      ],
      "name": "Camera"
    },
    {
      "name": "Object_9"
    },
    {
      "children": [
        11
      ],
      "matrix": [
        -29.08647719990347,
        -5.518906457566863,
        -95.51711910171437,
        0.0,
        56.63930913109449,
        79.46723428563203,
        -21.83912397841966,
        0.0,
        77.11008775993375,
        -60.45246356562044,
        -19.98834696773717,
        0.0,
        407.6245422363281,
        936.0782470703125,
        713.1242065429688,
        1.0
      ],
      "name": "Light"
    },
    {
      "children": [
        12
      ],
      "matrix": [
        1.0,
        0.0,
        0.0,
        0.0,
        0.0,
        2.220446049250313e-16,
        1.0,
        0.0,
        0.0,
        -1.0,
        2.220446049250313e-16,
        0.0,
        0.0,
        0.0,
        0.0,
        1.0
      ],
      "name": "Object_11"
    },
    {
      "name": "Object_12"
    }
  ],
  "samplers": [
    {
      "magFilter": 9729,
      "minFilter": 9987,
      "wrapS": 10497,
      "wrapT": 10497
    },
    {
      "magFilter": 9729,
      "minFilter": 9987,
      "wrapS": 33648,
      "wrapT": 33648
    }
  ],
  "scene": 0,
  "scenes": [
    {
      "name": "Sketchfab_Scene",
      "nodes": [
        0
      ]
    }
  ],
  "textures": [
    {
      "sampler": 0,
      "source": 0
    },
    {
      "sampler": 0,
      "source": 1
    },
    {
      "sampler": 0,
      "source": 2
    },
    {
      "sampler": 0,
      "source": 3
    },
    {
      "sampler": 0,
      "source": 4
    },
    {
      "sampler": 0,
      "source": 5
    },
    {
      "sampler": 1,
      "source": 6
    },
    {
      "sampler": 0,
      "source": 7
    }
  ]
}